<svg width="200" height="31" viewBox="0 0 200 31" fill="none" xmlns="http://www.w3.org/2000/svg">
<path d="M40.574 24C40.3833 24 40.2273 23.9393 40.106 23.818C39.9847 23.6967 39.924 23.5407 39.924 23.35V6.45C39.924 6.25933 39.9847 6.10333 40.106 5.982C40.2273 5.86067 40.3833 5.8 40.574 5.8H51.468C51.6587 5.8 51.8147 5.86067 51.936 5.982C52.0573 6.10333 52.118 6.25933 52.118 6.45V8.66C52.118 8.83333 52.0573 8.98067 51.936 9.102C51.8147 9.22333 51.6587 9.284 51.468 9.284H44.058V23.35C44.058 23.5407 43.9973 23.6967 43.876 23.818C43.7547 23.9393 43.5987 24 43.408 24H40.574ZM55.4651 24C55.2744 24 55.1184 23.9393 54.9971 23.818C54.8758 23.6967 54.8151 23.5407 54.8151 23.35V6.45C54.8151 6.25933 54.8758 6.10333 54.9971 5.982C55.1184 5.86067 55.2744 5.8 55.4651 5.8H67.2431C67.4338 5.8 67.5898 5.86067 67.7111 5.982C67.8324 6.10333 67.8931 6.25933 67.8931 6.45V8.53C67.8931 8.70333 67.8324 8.85067 67.7111 8.972C67.5898 9.09333 67.4338 9.154 67.2431 9.154H58.8191V13.236H66.6711C66.8618 13.236 67.0178 13.2967 67.1391 13.418C67.2604 13.5393 67.3211 13.6953 67.3211 13.886V15.81C67.3211 15.9833 67.2604 16.1307 67.1391 16.252C67.0178 16.3733 66.8618 16.434 66.6711 16.434H58.8191V20.646H67.4511C67.6418 20.646 67.7978 20.7067 67.9191 20.828C68.0404 20.9493 68.1011 21.1053 68.1011 21.296V23.35C68.1011 23.5407 68.0404 23.6967 67.9191 23.818C67.7978 23.9393 67.6418 24 67.4511 24H55.4651ZM78.94 24.26C77.3627 24.26 76.002 24 74.858 23.48C73.714 22.96 72.8214 22.18 72.18 21.14C71.5387 20.0827 71.192 18.7567 71.14 17.162C71.1227 16.4167 71.114 15.68 71.114 14.952C71.114 14.2067 71.1227 13.4527 71.14 12.69C71.192 11.13 71.5387 9.82133 72.18 8.764C72.8387 7.68933 73.74 6.88333 74.884 6.346C76.0454 5.80867 77.3974 5.54 78.94 5.54C80.4654 5.54 81.8 5.80867 82.944 6.346C84.1054 6.88333 85.0154 7.68933 85.674 8.764C86.3327 9.82133 86.6794 11.13 86.714 12.69C86.7487 13.4527 86.766 14.2067 86.766 14.952C86.766 15.68 86.7487 16.4167 86.714 17.162C86.662 18.7567 86.3154 20.0827 85.674 21.14C85.0327 22.18 84.14 22.96 82.996 23.48C81.852 24 80.5 24.26 78.94 24.26ZM78.94 20.906C79.9454 20.906 80.7687 20.6027 81.41 19.996C82.0687 19.372 82.4154 18.384 82.45 17.032C82.4847 16.2693 82.502 15.5587 82.502 14.9C82.502 14.224 82.4847 13.5133 82.45 12.768C82.4327 11.8667 82.268 11.13 81.956 10.558C81.644 9.986 81.228 9.57 80.708 9.31C80.2054 9.03267 79.616 8.894 78.94 8.894C78.264 8.894 77.666 9.03267 77.146 9.31C76.626 9.57 76.21 9.986 75.898 10.558C75.6034 11.13 75.4387 11.8667 75.404 12.768C75.3867 13.5133 75.378 14.224 75.378 14.9C75.378 15.5587 75.3867 16.2693 75.404 17.032C75.456 18.384 75.8027 19.372 76.444 19.996C77.0854 20.6027 77.9174 20.906 78.94 20.906ZM91.1633 24C90.9726 24 90.8166 23.9393 90.6953 23.818C90.574 23.6967 90.5133 23.5407 90.5133 23.35V6.45C90.5133 6.25933 90.574 6.10333 90.6953 5.982C90.8166 5.86067 90.9726 5.8 91.1633 5.8H105.177C105.368 5.8 105.524 5.86067 105.645 5.982C105.767 6.10333 105.827 6.25933 105.827 6.45V23.35C105.827 23.5407 105.767 23.6967 105.645 23.818C105.524 23.9393 105.368 24 105.177 24H102.343C102.153 24 101.997 23.9393 101.875 23.818C101.754 23.6967 101.693 23.5407 101.693 23.35V9.492H94.6473V23.35C94.6473 23.5407 94.5866 23.6967 94.4653 23.818C94.344 23.9393 94.188 24 93.9973 24H91.1633ZM117.431 24.26C115.854 24.26 114.493 24 113.349 23.48C112.205 22.96 111.313 22.18 110.671 21.14C110.03 20.0827 109.683 18.7567 109.631 17.162C109.614 16.4167 109.605 15.68 109.605 14.952C109.605 14.2067 109.614 13.4527 109.631 12.69C109.683 11.13 110.03 9.82133 110.671 8.764C111.33 7.68933 112.231 6.88333 113.375 6.346C114.537 5.80867 115.889 5.54 117.431 5.54C118.957 5.54 120.291 5.80867 121.435 6.346C122.597 6.88333 123.507 7.68933 124.165 8.764C124.824 9.82133 125.171 11.13 125.205 12.69C125.24 13.4527 125.257 14.2067 125.257 14.952C125.257 15.68 125.24 16.4167 125.205 17.162C125.153 18.7567 124.807 20.0827 124.165 21.14C123.524 22.18 122.631 22.96 121.487 23.48C120.343 24 118.991 24.26 117.431 24.26ZM117.431 20.906C118.437 20.906 119.26 20.6027 119.901 19.996C120.56 19.372 120.907 18.384 120.941 17.032C120.976 16.2693 120.993 15.5587 120.993 14.9C120.993 14.224 120.976 13.5133 120.941 12.768C120.924 11.8667 120.759 11.13 120.447 10.558C120.135 9.986 119.719 9.57 119.199 9.31C118.697 9.03267 118.107 8.894 117.431 8.894C116.755 8.894 116.157 9.03267 115.637 9.31C115.117 9.57 114.701 9.986 114.389 10.558C114.095 11.13 113.93 11.8667 113.895 12.768C113.878 13.5133 113.869 14.224 113.869 14.9C113.869 15.5587 113.878 16.2693 113.895 17.032C113.947 18.384 114.294 19.372 114.935 19.996C115.577 20.6027 116.409 20.906 117.431 20.906ZM129.654 24C129.464 24 129.308 23.9393 129.186 23.818C129.065 23.6967 129.004 23.5407 129.004 23.35V6.45C129.004 6.25933 129.065 6.10333 129.186 5.982C129.308 5.86067 129.464 5.8 129.654 5.8H136.752C138.156 5.8 139.37 6.01667 140.392 6.45C141.432 6.88333 142.238 7.542 142.81 8.426C143.4 9.29267 143.694 10.376 143.694 11.676C143.694 12.9933 143.4 14.0853 142.81 14.952C142.238 15.8013 141.432 16.434 140.392 16.85C139.37 17.266 138.156 17.474 136.752 17.474H133.268V23.35C133.268 23.5407 133.208 23.6967 133.086 23.818C132.965 23.9393 132.809 24 132.618 24H129.654ZM133.19 14.25H136.622C137.506 14.25 138.191 14.0333 138.676 13.6C139.179 13.1667 139.43 12.5167 139.43 11.65C139.43 10.8873 139.205 10.2633 138.754 9.778C138.321 9.29267 137.61 9.05 136.622 9.05H133.19V14.25ZM151.52 24C151.33 24 151.174 23.9393 151.052 23.818C150.931 23.6967 150.87 23.5407 150.87 23.35V9.414H146.138C145.965 9.414 145.818 9.35333 145.696 9.232C145.575 9.11067 145.514 8.96333 145.514 8.79V6.45C145.514 6.25933 145.575 6.10333 145.696 5.982C145.818 5.86067 145.965 5.8 146.138 5.8H159.762C159.953 5.8 160.109 5.86067 160.23 5.982C160.352 6.10333 160.412 6.25933 160.412 6.45V8.79C160.412 8.96333 160.352 9.11067 160.23 9.232C160.109 9.35333 159.953 9.414 159.762 9.414H155.056V23.35C155.056 23.5407 154.996 23.6967 154.874 23.818C154.753 23.9393 154.597 24 154.406 24H151.52ZM162.367 24C162.211 24 162.081 23.948 161.977 23.844C161.873 23.7227 161.821 23.5927 161.821 23.454C161.821 23.3673 161.83 23.2893 161.847 23.22L168.035 6.502C168.087 6.31133 168.191 6.14667 168.347 6.008C168.503 5.86933 168.72 5.8 168.997 5.8H172.325C172.602 5.8 172.819 5.86933 172.975 6.008C173.131 6.14667 173.235 6.31133 173.287 6.502L179.475 23.22C179.492 23.2893 179.501 23.3673 179.501 23.454C179.501 23.5927 179.449 23.7227 179.345 23.844C179.241 23.948 179.111 24 178.955 24H176.251C175.991 24 175.8 23.9393 175.679 23.818C175.558 23.6967 175.48 23.584 175.445 23.48L174.327 20.568H166.995L165.877 23.48C165.842 23.584 165.764 23.6967 165.643 23.818C165.522 23.9393 165.331 24 165.071 24H162.367ZM167.957 17.214H173.339L170.661 9.726L167.957 17.214ZM194.376 24C194.185 24 194.029 23.9393 193.908 23.818C193.786 23.6967 193.726 23.5407 193.726 23.35V9.492H188.5V12.326C188.5 14.4233 188.396 16.2087 188.188 17.682C187.98 19.138 187.624 20.3253 187.122 21.244C186.619 22.1627 185.926 22.8473 185.042 23.298C184.175 23.7313 183.066 23.9653 181.714 24C181.54 24 181.384 23.9393 181.246 23.818C181.124 23.6793 181.064 23.5147 181.064 23.324V21.01C181.064 20.646 181.263 20.4293 181.662 20.36C182.164 20.2733 182.589 20.0307 182.936 19.632C183.3 19.2333 183.594 18.6787 183.82 17.968C184.062 17.24 184.236 16.3647 184.34 15.342C184.444 14.302 184.496 13.1233 184.496 11.806V6.45C184.496 6.25933 184.556 6.10333 184.678 5.982C184.799 5.86067 184.946 5.8 185.12 5.8H197.21C197.4 5.8 197.556 5.86067 197.678 5.982C197.799 6.10333 197.86 6.25933 197.86 6.45V23.35C197.86 23.5407 197.799 23.6967 197.678 23.818C197.556 23.9393 197.4 24 197.21 24H194.376Z" fill="white"/>
<path d="M21.25 28.5C24.7018 28.5 27.5 25.7018 27.5 22.25C27.5 18.7982 24.7018 16 21.25 16C17.7982 16 15 18.7982 15 22.25C15 25.7018 17.7982 28.5 21.25 28.5Z" fill="#EDFF81"/>
<path d="M23.125 12.25C25.5412 12.25 27.5 10.2912 27.5 7.875C27.5 5.45875 25.5412 3.5 23.125 3.5C20.7088 3.5 18.75 5.45875 18.75 7.875C18.75 10.2912 20.7088 12.25 23.125 12.25Z" fill="white"/>
<path d="M6.9126 28.4624C9.32884 28.4624 11.2876 26.5036 11.2876 24.0874C11.2876 21.6712 9.32884 19.7124 6.9126 19.7124C4.49635 19.7124 2.5376 21.6712 2.5376 24.0874C2.5376 26.5036 4.49635 28.4624 6.9126 28.4624Z" fill="white"/>
<path d="M8.75 16C12.2018 16 15 13.2018 15 9.75C15 6.29822 12.2018 3.5 8.75 3.5C5.29822 3.5 2.5 6.29822 2.5 9.75C2.5 13.2018 5.29822 16 8.75 16Z" fill="#EDFF81"/>
</svg>
